<svg width="24" height="24" viewBox="0 0 24 24" fill="none" xmlns="http://www.w3.org/2000/svg">
<g clip-path="url(#clip0_736_2475)">
<path d="M5.60353 9.08312C6.11591 8.01283 6.90185 7.09815 7.87101 6.4297C8.95867 5.67947 10.2793 5.24016 11.7047 5.24016C13.5713 5.24016 15.2613 5.99673 16.4844 7.21991C17.7076 8.44311 18.4642 10.133 18.4642 11.9996C18.4642 12.2842 18.6949 12.515 18.9795 12.515C19.2641 12.515 19.4949 12.2842 19.4949 11.9996C19.4949 9.84849 18.6229 7.90096 17.2132 6.4912C15.8034 5.08144 13.8559 4.20947 11.7047 4.20947C10.0663 4.20947 8.54426 4.71719 7.28724 5.58424C6.04017 6.4444 5.05614 7.65918 4.48047 9.08312H5.60353L5.60353 9.08312ZM19.6102 14.7631L19.612 14.758H18.5003C17.9912 15.8964 17.1762 16.8684 16.1596 17.5696C15.0719 18.3198 13.7513 18.7591 12.3259 18.7591C10.4592 18.7591 8.76934 18.0025 7.54614 16.7794C6.32294 15.5562 5.56639 13.8663 5.56639 11.9997C5.56639 11.715 5.33566 11.4843 5.05105 11.4843C4.76643 11.4843 4.53571 11.715 4.53571 11.9997C4.53571 14.1508 5.40767 16.0983 6.81742 17.5081C8.22717 18.9178 10.1747 19.7898 12.3259 19.7898C13.9643 19.7898 15.4863 19.2821 16.7433 18.415C18.0349 17.5242 19.0443 16.2531 19.6101 14.7632L19.6102 14.7631Z" fill="#212121"/>
<path d="M13.9511 12.9812C13.9511 13.21 13.9102 13.4157 13.8285 13.5995C13.7481 13.7821 13.6324 13.9414 13.4839 14.0735C13.3354 14.207 13.1557 14.3132 12.9445 14.3936C12.7348 14.4726 12.5019 14.523 12.2472 14.5448L12.1627 15.3987C12.16 15.4205 12.1546 15.4383 12.145 15.4546C12.1355 15.4709 12.1192 15.4846 12.0933 15.4941C12.0674 15.505 12.0334 15.5145 11.9898 15.52C11.9462 15.5268 11.8904 15.5309 11.8236 15.5309C11.7392 15.5309 11.6697 15.5268 11.6179 15.5186C11.5662 15.5104 11.5253 15.4995 11.4967 15.4846C11.4681 15.4696 11.4477 15.4505 11.4395 15.4274C11.43 15.4028 11.4273 15.3756 11.4327 15.347L11.5172 14.5366C11.4027 14.5202 11.2952 14.4998 11.193 14.4753C11.0922 14.4494 11.0009 14.4222 10.9179 14.3909C10.8361 14.3609 10.764 14.3296 10.704 14.2969C10.6455 14.2656 10.5992 14.2342 10.5692 14.2043C10.5379 14.1729 10.5161 14.128 10.5038 14.0681C10.4902 14.0081 10.4834 13.9196 10.4834 13.8025C10.4834 13.7126 10.4861 13.6377 10.4916 13.5791C10.497 13.5205 10.5052 13.4756 10.5188 13.4429C10.5324 13.4116 10.5488 13.3898 10.5692 13.3775C10.5896 13.3653 10.6128 13.3598 10.6387 13.3598C10.6741 13.3598 10.7245 13.3803 10.7898 13.4197C10.8566 13.4593 10.9424 13.5028 11.0459 13.5519C11.1494 13.5995 11.2747 13.6431 11.4232 13.6826C11.5703 13.7235 11.7446 13.7425 11.9435 13.7425C12.2554 13.7425 12.4869 13.6853 12.6381 13.5696C12.7893 13.4538 12.8656 13.2999 12.8656 13.1078C12.8656 12.9812 12.8329 12.8749 12.7675 12.7932C12.7021 12.7101 12.6149 12.638 12.506 12.5753C12.397 12.5127 12.2744 12.4568 12.1369 12.4078C12.0007 12.3587 11.8604 12.307 11.716 12.2498C11.573 12.1939 11.4327 12.1299 11.2952 12.055C11.1576 11.9801 11.035 11.8889 10.926 11.7799C10.8171 11.6709 10.7299 11.5388 10.6645 11.3822C10.5992 11.2269 10.5665 11.039 10.5665 10.8183C10.5665 10.6181 10.6005 10.4369 10.6673 10.2735C10.7327 10.11 10.8293 9.96705 10.9547 9.84447C11.0786 9.72188 11.2325 9.62247 11.415 9.54755C11.5975 9.47129 11.8045 9.41951 12.0361 9.39365L12.1151 8.59142C12.1178 8.56963 12.1232 8.55192 12.1328 8.53694C12.1423 8.52332 12.16 8.5097 12.1845 8.49744C12.2104 8.48518 12.2445 8.47701 12.2867 8.47156C12.3289 8.46611 12.3848 8.46338 12.4542 8.46338C12.5373 8.46338 12.6054 8.46748 12.6599 8.47564C12.7144 8.48382 12.7566 8.49471 12.7852 8.5097C12.8152 8.52468 12.8329 8.54374 12.841 8.56691C12.8492 8.59142 12.8533 8.61865 12.8533 8.64726L12.7743 9.40183C12.8478 9.4127 12.9268 9.42632 13.0086 9.4454C13.0916 9.46447 13.1693 9.48625 13.2401 9.51078C13.3123 9.53666 13.3777 9.56253 13.4362 9.59113C13.4948 9.61839 13.5357 9.64425 13.5575 9.66741C13.5806 9.68921 13.5969 9.71236 13.6092 9.73415C13.6215 9.7573 13.631 9.78454 13.6378 9.81859C13.6446 9.85128 13.6487 9.89214 13.6514 9.93846C13.6541 9.98476 13.6555 10.0379 13.6555 10.0992C13.6555 10.1823 13.6541 10.2504 13.6501 10.3035C13.646 10.3566 13.6378 10.3974 13.6269 10.4247C13.6174 10.4533 13.6051 10.471 13.5915 10.4805C13.5779 10.4901 13.5629 10.4942 13.5438 10.4942C13.5098 10.4942 13.458 10.4778 13.3926 10.4424C13.3259 10.4084 13.2442 10.3716 13.1461 10.3307C13.0494 10.2912 12.9377 10.2544 12.8111 10.219C12.6858 10.185 12.5468 10.1673 12.3943 10.1673C12.2567 10.1673 12.1382 10.1809 12.0388 10.2068C11.9407 10.234 11.8618 10.2708 11.8005 10.3198C11.7392 10.3675 11.6942 10.4247 11.6643 10.4914C11.6357 10.5568 11.6207 10.6304 11.6207 10.7107C11.6207 10.8347 11.6534 10.9409 11.7201 11.0253C11.7868 11.1111 11.8754 11.1833 11.9857 11.2446C12.096 11.3059 12.2213 11.3618 12.3602 11.4121C12.5005 11.4625 12.6422 11.5157 12.7879 11.5715C12.9323 11.6273 13.0753 11.6927 13.2142 11.7663C13.3545 11.8385 13.4785 11.9297 13.5874 12.0373C13.6964 12.1449 13.7849 12.2757 13.8516 12.4282C13.917 12.5808 13.9511 12.7646 13.9511 12.9812L13.9511 12.9812Z" fill="#212121"/>
<path fill-rule="evenodd" clip-rule="evenodd" d="M5.0415 10.2651L7.08046 12.3041H2.99902L5.0415 10.2651Z" fill="#212121"/>
<path fill-rule="evenodd" clip-rule="evenodd" d="M19.039 14.039L21.0779 12H17L19.039 14.039Z" fill="#212121"/>
</g>
<defs>
<clipPath id="clip0_736_2475">
<rect width="24" height="24" fill="white"/>
</clipPath>
</defs>
</svg>
